<svg width="25" height="25" viewBox="0 0 25 25" fill="none" xmlns="http://www.w3.org/2000/svg">
<g clip-path="url(#clip0_119_40)">
<path d="M5.5 18.5H3.5C2.96957 18.5 2.46086 18.2893 2.08579 17.9142C1.71071 17.5391 1.5 17.0304 1.5 16.5V8.5C1.5 7.96957 1.71071 7.46086 2.08579 7.08579C2.46086 6.71071 2.96957 6.5 3.5 6.5H6.69M15.5 6.5H17.5C18.0304 6.5 18.5391 6.71071 18.9142 7.08579C19.2893 7.46086 19.5 7.96957 19.5 8.5V16.5C19.5 17.0304 19.2893 17.5391 18.9142 17.9142C18.5391 18.2893 18.0304 18.5 17.5 18.5H14.31" stroke="white" stroke-width="2" stroke-linecap="round" stroke-linejoin="round"/>
<path d="M23.5 13.5V11.5" stroke="white" stroke-width="2" stroke-linecap="round" stroke-linejoin="round"/>
<path d="M11.5 6.5L7.5 12.5H13.5L9.5 18.5" stroke="white" stroke-width="2" stroke-linecap="round" stroke-linejoin="round"/>
</g>
<defs>
<clipPath id="clip0_119_40">
<rect width="24" height="24" fill="white" transform="translate(0.5 0.5)"/>
</clipPath>
</defs>
</svg>
