<svg width="240" height="290" viewBox="0 0 240 290" fill="none" xmlns="http://www.w3.org/2000/svg">
<rect x="1.5" y="51.5" width="17" height="17" fill="#E7E7E7"/>
<rect x="23.5" y="51.5" width="17" height="17" fill="#E7E7E7"/>
<rect x="45.5" y="51.5" width="17" height="17" fill="#E7E7E7"/>
<rect x="67.5" y="51.5" width="17" height="17" fill="#E7E7E7"/>
<rect x="89.5" y="51.5" width="17" height="17" fill="#E7E7E7"/>
<rect x="111.5" y="51.5" width="17" height="17" fill="#E7E7E7"/>
<rect x="133.5" y="51.5" width="17" height="17" fill="#E91C23"/>
<rect x="155.5" y="51.5" width="17" height="17" fill="#E91C23"/>
<rect x="177.5" y="51.5" width="17" height="17" fill="#E7E7E7"/>
<rect x="199.5" y="51.5" width="17" height="17" fill="#E7E7E7"/>
<rect x="221.5" y="51.5" width="17" height="17" fill="#E7E7E7"/>
<rect x="1.5" y="73.5" width="17" height="17" fill="#E7E7E7"/>
<rect x="23.5" y="73.5" width="17" height="17" fill="#E7E7E7"/>
<rect x="45.5" y="73.5" width="17" height="17" fill="#E7E7E7"/>
<rect x="67.5" y="73.5" width="17" height="17" fill="#E7E7E7"/>
<rect x="89.5" y="73.5" width="17" height="17" fill="#E7E7E7"/>
<rect x="111.5" y="73.5" width="17" height="17" fill="#E7E7E7"/>
<rect x="133.5" y="73.5" width="17" height="17" fill="#E7E7E7"/>
<rect x="155.5" y="73.5" width="17" height="17" fill="#E7E7E7"/>
<rect x="177.5" y="73.5" width="17" height="17" fill="#E7E7E7"/>
<rect x="199.5" y="73.5" width="17" height="17" fill="#E7E7E7"/>
<rect x="221.5" y="73.5" width="17" height="17" fill="#E7E7E7"/>
<rect x="1.5" y="95.5" width="17" height="17" fill="#E7E7E7"/>
<rect x="23.5" y="95.5" width="17" height="17" fill="#E7E7E7"/>
<rect x="45.5" y="95.5" width="17" height="17" fill="#E7E7E7"/>
<rect x="67.5" y="95.5" width="17" height="17" fill="#E7E7E7"/>
<rect x="89.5" y="95.5" width="17" height="17" fill="#E7E7E7"/>
<rect x="111.5" y="95.5" width="17" height="17" fill="#E7E7E7"/>
<rect x="133.5" y="95.5" width="17" height="17" fill="#E7E7E7"/>
<rect x="155.5" y="95.5" width="17" height="17" fill="#E7E7E7"/>
<rect x="177.5" y="95.5" width="17" height="17" fill="#E7E7E7"/>
<rect x="199.5" y="95.5" width="17" height="17" fill="#E7E7E7"/>
<rect x="221.5" y="95.5" width="17" height="17" fill="#E7E7E7"/>
<rect x="1.5" y="117.5" width="17" height="17" fill="#E7E7E7"/>
<rect x="23.5" y="117.5" width="17" height="17" fill="#E7E7E7"/>
<rect x="45.5" y="117.5" width="17" height="17" fill="#E7E7E7"/>
<rect x="67.5" y="117.5" width="17" height="17" fill="#E7E7E7"/>
<rect x="89.5" y="117.5" width="17" height="17" fill="#E7E7E7"/>
<rect x="111.5" y="117.5" width="17" height="17" fill="#E7E7E7"/>
<rect x="133.5" y="117.5" width="17" height="17" fill="#E7E7E7"/>
<rect x="155.5" y="117.5" width="17" height="17" fill="#E7E7E7"/>
<rect x="177.5" y="117.5" width="17" height="17" fill="#E7E7E7"/>
<rect x="199.5" y="117.5" width="17" height="17" fill="#E7E7E7"/>
<rect x="221.5" y="117.5" width="17" height="17" fill="#E7E7E7"/>
<rect x="1.5" y="139.5" width="17" height="17" fill="#E7E7E7"/>
<rect x="23.5" y="139.5" width="17" height="17" fill="#E7E7E7"/>
<rect x="45.5" y="139.5" width="17" height="17" fill="#E7E7E7"/>
<rect x="67.5" y="139.5" width="17" height="17" fill="#E7E7E7"/>
<rect x="89.5" y="139.5" width="17" height="17" fill="#E7E7E7"/>
<rect x="111.5" y="139.5" width="17" height="17" fill="#E7E7E7"/>
<rect x="133.5" y="139.5" width="17" height="17" fill="#E7E7E7"/>
<rect x="155.5" y="139.5" width="17" height="17" fill="#E7E7E7"/>
<rect x="177.5" y="139.5" width="17" height="17" fill="#E7E7E7"/>
<rect x="199.5" y="139.5" width="17" height="17" fill="#E7E7E7"/>
<rect x="221.5" y="139.5" width="17" height="17" fill="#E7E7E7"/>
<rect x="1.5" y="161.5" width="17" height="17" fill="#E7E7E7"/>
<rect x="23.5" y="161.5" width="17" height="17" fill="#E7E7E7"/>
<rect x="45.5" y="161.5" width="17" height="17" fill="#E7E7E7"/>
<rect x="67.5" y="161.5" width="17" height="17" fill="#E7E7E7"/>
<rect x="89.5" y="161.5" width="17" height="17" fill="#E7E7E7"/>
<rect x="111.5" y="161.5" width="17" height="17" fill="#E7E7E7"/>
<rect x="133.5" y="161.5" width="17" height="17" fill="#E7E7E7"/>
<rect x="155.5" y="161.5" width="17" height="17" fill="#E7E7E7"/>
<rect x="177.5" y="161.5" width="17" height="17" fill="#E7E7E7"/>
<rect x="199.5" y="161.5" width="17" height="17" fill="#E7E7E7"/>
<rect x="221.5" y="161.5" width="17" height="17" fill="#E7E7E7"/>
<rect x="1.5" y="183.5" width="17" height="17" fill="#E7E7E7"/>
<rect x="23.5" y="183.5" width="17" height="17" fill="#E7E7E7"/>
<rect x="45.5" y="183.5" width="17" height="17" fill="#E7E7E7"/>
<rect x="67.5" y="183.5" width="17" height="17" fill="#E7E7E7"/>
<rect x="89.5" y="183.5" width="17" height="17" fill="#E7E7E7"/>
<rect x="111.5" y="183.5" width="17" height="17" fill="#E7E7E7"/>
<rect x="133.5" y="183.5" width="17" height="17" fill="#E7E7E7"/>
<rect x="155.5" y="183.5" width="17" height="17" fill="#E7E7E7"/>
<rect x="177.5" y="183.5" width="17" height="17" fill="#E7E7E7"/>
<rect x="199.5" y="183.5" width="17" height="17" fill="#E7E7E7"/>
<rect x="221.5" y="183.5" width="17" height="17" fill="#E7E7E7"/>
<rect x="1.5" y="205.5" width="17" height="17" fill="#E7E7E7"/>
<rect x="23.5" y="205.5" width="17" height="17" fill="#E7E7E7"/>
<rect x="45.5" y="205.5" width="17" height="17" fill="#E7E7E7"/>
<rect x="67.5" y="205.5" width="17" height="17" fill="#E7E7E7"/>
<rect x="89.5" y="205.5" width="17" height="17" fill="#E7E7E7"/>
<rect x="111.5" y="205.5" width="17" height="17" fill="#E7E7E7"/>
<rect x="133.5" y="205.5" width="17" height="17" fill="#E7E7E7"/>
<rect x="155.5" y="205.5" width="17" height="17" fill="#E7E7E7"/>
<rect x="177.5" y="205.5" width="17" height="17" fill="#E7E7E7"/>
<rect x="199.5" y="205.5" width="17" height="17" fill="#E7E7E7"/>
<rect x="221.5" y="205.5" width="17" height="17" fill="#E7E7E7"/>
<rect x="1.5" y="227.5" width="17" height="17" fill="#E7E7E7"/>
<rect x="23.5" y="227.5" width="17" height="17" fill="#E7E7E7"/>
<rect x="45.5" y="227.5" width="17" height="17" fill="#E7E7E7"/>
<rect x="67.5" y="227.5" width="17" height="17" fill="#E7E7E7"/>
<rect x="89.5" y="227.5" width="17" height="17" fill="#E7E7E7"/>
<rect x="111.5" y="227.5" width="17" height="17" fill="#E7E7E7"/>
<rect x="133.5" y="227.5" width="17" height="17" fill="#E7E7E7"/>
<rect x="155.5" y="227.5" width="17" height="17" fill="#E7E7E7"/>
<rect x="177.5" y="227.5" width="17" height="17" fill="#E7E7E7"/>
<rect x="199.5" y="227.5" width="17" height="17" fill="#E7E7E7"/>
<rect x="221.5" y="227.5" width="17" height="17" fill="#E7E7E7"/>
<rect x="1.5" y="249.5" width="17" height="17" fill="#E7E7E7"/>
<rect x="23.5" y="249.5" width="17" height="17" fill="#E7E7E7"/>
<rect x="45.5" y="249.5" width="17" height="17" fill="#E7E7E7"/>
<rect x="67.5" y="249.5" width="17" height="17" fill="#E7E7E7"/>
<rect x="89.5" y="249.5" width="17" height="17" fill="#E7E7E7"/>
<rect x="111.5" y="249.5" width="17" height="17" fill="#E7E7E7"/>
<rect x="133.5" y="249.5" width="17" height="17" fill="#E7E7E7"/>
<rect x="155.5" y="249.5" width="17" height="17" fill="#E7E7E7"/>
<rect x="177.5" y="249.5" width="17" height="17" fill="#E7E7E7"/>
<rect x="199.5" y="249.5" width="17" height="17" fill="#E7E7E7"/>
<rect x="221.5" y="249.5" width="17" height="17" fill="#E7E7E7"/>
<rect x="1.5" y="271.5" width="17" height="17" fill="#E7E7E7"/>
<rect x="23.5" y="271.5" width="17" height="17" fill="#E7E7E7"/>
<rect x="45.5" y="271.5" width="17" height="17" fill="#E7E7E7"/>
<rect x="67.5" y="271.5" width="17" height="17" fill="#E7E7E7"/>
<rect x="89.5" y="271.5" width="17" height="17" fill="#E7E7E7"/>
<rect x="111.5" y="271.5" width="17" height="17" fill="#E7E7E7"/>
<rect x="133.5" y="271.5" width="17" height="17" fill="#E7E7E7"/>
<rect x="155.5" y="271.5" width="17" height="17" fill="#E7E7E7"/>
<rect x="177.5" y="271.5" width="17" height="17" fill="#E7E7E7"/>
<rect x="199.5" y="271.5" width="17" height="17" fill="#E7E7E7"/>
<rect x="221.5" y="271.5" width="17" height="17" fill="#E7E7E7"/>
<path d="M142 24V23H141V24H142ZM164 24H165V23H164V24ZM163.293 47.7071C163.683 48.0976 164.317 48.0976 164.707 47.7071L171.071 41.3431C171.462 40.9526 171.462 40.3195 171.071 39.9289C170.681 39.5384 170.047 39.5384 169.657 39.9289L164 45.5858L158.343 39.9289C157.953 39.5384 157.319 39.5384 156.929 39.9289C156.538 40.3195 156.538 40.9526 156.929 41.3431L163.293 47.7071ZM141.293 47.7071C141.683 48.0976 142.317 48.0976 142.707 47.7071L149.071 41.3431C149.462 40.9526 149.462 40.3195 149.071 39.9289C148.681 39.5384 148.047 39.5384 147.657 39.9289L142 45.5858L136.343 39.9289C135.953 39.5384 135.319 39.5384 134.929 39.9289C134.538 40.3195 134.538 40.9526 134.929 41.3431L141.293 47.7071ZM142 25H164V23H142V25ZM163 24V47H165V24H163ZM143 47V24H141V47H143Z" fill="white" fill-opacity="0.3"/>
<path d="M130.056 15H127.5V6.828H124.332V4.902C124.776 4.914 125.202 4.884 125.61 4.812C126.03 4.728 126.402 4.59 126.726 4.398C127.062 4.194 127.344 3.93 127.572 3.606C127.8 3.282 127.95 2.88 128.022 2.4H130.056V15ZM134.082 12.228H136.908V15H134.082V12.228ZM142.872 8.934C143.22 8.934 143.52 8.874 143.772 8.754C144.024 8.622 144.234 8.448 144.402 8.232C144.57 8.016 144.696 7.77 144.78 7.494C144.864 7.206 144.906 6.906 144.906 6.594C144.906 6.306 144.858 6.024 144.762 5.748C144.678 5.46 144.546 5.208 144.366 4.992C144.198 4.764 143.988 4.584 143.736 4.452C143.484 4.32 143.196 4.254 142.872 4.254C142.572 4.254 142.302 4.32 142.062 4.452C141.822 4.584 141.618 4.758 141.45 4.974C141.282 5.19 141.156 5.436 141.072 5.712C140.988 5.988 140.946 6.27 140.946 6.558C140.946 6.858 140.982 7.152 141.054 7.44C141.138 7.716 141.258 7.968 141.414 8.196C141.57 8.412 141.768 8.592 142.008 8.736C142.26 8.868 142.548 8.934 142.872 8.934ZM141.036 11.76C141.12 12.18 141.312 12.546 141.612 12.858C141.912 13.17 142.284 13.326 142.728 13.326C143.196 13.326 143.58 13.194 143.88 12.93C144.18 12.654 144.42 12.324 144.6 11.94C144.78 11.544 144.906 11.124 144.978 10.68C145.062 10.236 145.116 9.84 145.14 9.492L145.104 9.456C144.756 9.96 144.348 10.32 143.88 10.536C143.412 10.752 142.872 10.86 142.26 10.86C141.72 10.86 141.192 10.746 140.676 10.518C140.16 10.278 139.722 9.96 139.362 9.564C139.026 9.18 138.78 8.742 138.624 8.25C138.468 7.758 138.39 7.26 138.39 6.756C138.39 6.108 138.492 5.508 138.696 4.956C138.912 4.392 139.212 3.906 139.596 3.498C139.992 3.078 140.46 2.748 141 2.508C141.54 2.268 142.14 2.148 142.8 2.148C143.76 2.148 144.546 2.34 145.158 2.724C145.782 3.096 146.28 3.594 146.652 4.218C147.024 4.83 147.282 5.526 147.426 6.306C147.57 7.086 147.642 7.872 147.642 8.664C147.642 9.444 147.552 10.224 147.372 11.004C147.192 11.784 146.904 12.492 146.508 13.128C146.112 13.752 145.602 14.262 144.978 14.658C144.354 15.042 143.592 15.234 142.692 15.234C142.152 15.234 141.648 15.156 141.18 15C140.712 14.856 140.298 14.634 139.938 14.334C139.578 14.034 139.284 13.668 139.056 13.236C138.828 12.804 138.678 12.312 138.606 11.76H141.036ZM154.067 5.694H156.479V6.954H156.515C156.851 6.474 157.253 6.102 157.721 5.838C158.201 5.574 158.747 5.442 159.359 5.442C159.947 5.442 160.481 5.556 160.961 5.784C161.453 6.012 161.825 6.414 162.077 6.99C162.353 6.582 162.725 6.222 163.193 5.91C163.673 5.598 164.237 5.442 164.885 5.442C165.377 5.442 165.833 5.502 166.253 5.622C166.673 5.742 167.033 5.934 167.333 6.198C167.633 6.462 167.867 6.81 168.035 7.242C168.203 7.662 168.287 8.172 168.287 8.772V15H165.731V9.726C165.731 9.414 165.719 9.12 165.695 8.844C165.671 8.568 165.605 8.328 165.497 8.124C165.389 7.92 165.227 7.758 165.011 7.638C164.807 7.518 164.525 7.458 164.165 7.458C163.805 7.458 163.511 7.53 163.283 7.674C163.067 7.806 162.893 7.986 162.761 8.214C162.641 8.43 162.557 8.682 162.509 8.97C162.473 9.246 162.455 9.528 162.455 9.816V15H159.899V9.78C159.899 9.504 159.893 9.234 159.881 8.97C159.869 8.694 159.815 8.442 159.719 8.214C159.635 7.986 159.485 7.806 159.269 7.674C159.065 7.53 158.759 7.458 158.351 7.458C158.231 7.458 158.069 7.488 157.865 7.548C157.673 7.596 157.481 7.698 157.289 7.854C157.109 7.998 156.953 8.214 156.821 8.502C156.689 8.778 156.623 9.144 156.623 9.6V15H154.067V5.694ZM170.38 5.694H172.792V6.954H172.828C173.164 6.474 173.566 6.102 174.034 5.838C174.514 5.574 175.06 5.442 175.672 5.442C176.26 5.442 176.794 5.556 177.274 5.784C177.766 6.012 178.138 6.414 178.39 6.99C178.666 6.582 179.038 6.222 179.506 5.91C179.986 5.598 180.55 5.442 181.198 5.442C181.69 5.442 182.146 5.502 182.566 5.622C182.986 5.742 183.346 5.934 183.646 6.198C183.946 6.462 184.18 6.81 184.348 7.242C184.516 7.662 184.6 8.172 184.6 8.772V15H182.044V9.726C182.044 9.414 182.032 9.12 182.008 8.844C181.984 8.568 181.918 8.328 181.81 8.124C181.702 7.92 181.54 7.758 181.324 7.638C181.12 7.518 180.838 7.458 180.478 7.458C180.118 7.458 179.824 7.53 179.596 7.674C179.38 7.806 179.206 7.986 179.074 8.214C178.954 8.43 178.87 8.682 178.822 8.97C178.786 9.246 178.768 9.528 178.768 9.816V15H176.212V9.78C176.212 9.504 176.206 9.234 176.194 8.97C176.182 8.694 176.128 8.442 176.032 8.214C175.948 7.986 175.798 7.806 175.582 7.674C175.378 7.53 175.072 7.458 174.664 7.458C174.544 7.458 174.382 7.488 174.178 7.548C173.986 7.596 173.794 7.698 173.602 7.854C173.422 7.998 173.266 8.214 173.134 8.502C173.002 8.778 172.936 9.144 172.936 9.6V15H170.38V5.694Z" fill="white"/>
</svg>
