<svg width="242" height="244" viewBox="0 0 242 244" fill="none" xmlns="http://www.w3.org/2000/svg">
<g opacity="0.85">
<path d="M252.235 102.279L128.107 0.459338C127.418 -0.153113 126.423 -0.153113 125.658 0.459338L0.688743 102.279C0.229578 102.662 0 103.198 0 103.734V287.086C0 288.158 0.841803 289 1.91319 289H251.087C252.158 289 253 288.158 253 287.086V103.81C252.923 103.198 252.617 102.662 252.235 102.279ZM249.097 285.249H3.74984V104.729L126.883 4.44027L249.097 104.729V285.249Z" fill="white"/>
<path d="M24.2592 114.605C23.8001 114.987 23.5705 115.523 23.5705 116.059V265.267C23.5705 266.339 24.4123 267.181 25.4837 267.181H228.282C229.353 267.181 230.195 266.339 230.195 265.267V116.059C230.195 115.523 229.965 114.911 229.506 114.605L128.413 31.6942C127.724 31.0818 126.73 31.0818 125.964 31.6942L24.2592 114.605ZM226.368 116.978V263.43H27.3969V116.978L127.189 35.5986L226.368 116.978Z" fill="white"/>
<path d="M49.0541 245.363H205.553C206.624 245.363 207.466 244.521 207.466 243.449V128.308C207.466 127.772 207.237 127.16 206.777 126.854L128.796 62.8526C128.107 62.2402 127.112 62.2402 126.347 62.8526L47.8297 126.854C47.3705 127.236 47.1409 127.772 47.1409 128.308V243.449C47.1409 244.521 48.0593 245.363 49.0541 245.363ZM50.9673 129.227L127.571 66.8336L203.64 129.227V241.535H50.9673V129.227Z" fill="white"/>
<path d="M129.178 94.0878C128.49 93.4753 127.495 93.4753 126.73 94.0878L71.4767 139.103C71.0175 139.486 70.788 140.022 70.788 140.557V221.631C70.788 222.702 71.6298 223.544 72.7012 223.544H182.824C183.896 223.544 184.737 222.702 184.737 221.631V140.557C184.737 140.022 184.508 139.409 184.049 139.103L129.178 94.0878ZM180.911 219.717H74.6143V141.476L127.954 97.9921L180.911 141.476V219.717Z" fill="white"/>
<path d="M95.1237 151.352C94.6645 151.735 94.4349 152.271 94.4349 152.806V199.812C94.4349 200.884 95.2767 201.726 96.3481 201.726H160.172C161.243 201.726 162.085 200.884 162.085 199.812V152.806C162.085 152.271 161.856 151.658 161.397 151.352L129.561 125.246C128.872 124.634 127.877 124.634 127.112 125.246L95.1237 151.352ZM158.259 153.802V197.975H98.2613V153.802L128.337 129.304L158.259 153.802Z" fill="white"/>
</g>
</svg>
