<svg width="86" height="20" viewBox="0 0 86 20" fill="none" xmlns="http://www.w3.org/2000/svg">
<rect width="86" height="20" fill="#D5D5D5"/>
<rect width="1280" height="72" transform="translate(-597 -26)" fill="#040504"/>
<rect width="86" height="20" fill="#040504"/>
<circle cx="4" cy="10" r="4" fill="#E91C23"/>
<path d="M21.72 14L20.936 11.872H16.472L15.704 14H13.144L17.528 2.8H19.816L24.344 14H21.72ZM18.696 5.76L17.24 9.76H20.168L18.696 5.76ZM36.8364 11.84H37.8284V14H36.5324C35.4657 14 34.6177 13.6853 33.9884 13.056C33.3697 12.4267 33.0604 11.584 33.0604 10.528V7.344H31.1884V5.36H33.0604V2.944H35.3964V5.36H37.7964V7.344H35.3964V10.4C35.3964 10.8693 35.519 11.2267 35.7644 11.472C36.0097 11.7173 36.367 11.84 36.8364 11.84ZM27.5244 6.432C28.111 5.696 28.943 5.328 30.0204 5.328H30.5964V7.472H29.7804C29.119 7.472 28.6444 7.632 28.3564 7.952C28.079 8.26133 27.9404 8.768 27.9404 9.472V14H25.6044V5.36H27.1084L27.5244 6.432ZM47.754 9.648C47.754 9.872 47.738 10.1013 47.706 10.336H41.178C41.274 10.9227 41.5033 11.376 41.866 11.696C42.2393 12.0053 42.714 12.16 43.29 12.16C43.6847 12.16 44.042 12.0747 44.362 11.904C44.682 11.7227 44.9327 11.4773 45.114 11.168H47.578C47.258 12.1067 46.714 12.8533 45.946 13.408C45.178 13.9627 44.2927 14.24 43.29 14.24C42.01 14.24 40.9433 13.8027 40.09 12.928C39.2367 12.0533 38.81 10.9707 38.81 9.68C38.81 9.168 38.8793 8.67733 39.018 8.208C39.1673 7.73867 39.3753 7.31733 39.642 6.944C39.9193 6.57067 40.2393 6.25067 40.602 5.984C40.9647 5.70667 41.3753 5.49333 41.834 5.344C42.2927 5.19467 42.778 5.12 43.29 5.12C44.154 5.12 44.9273 5.32267 45.61 5.728C46.3033 6.13333 46.8313 6.68267 47.194 7.376C47.5673 8.06933 47.754 8.82667 47.754 9.648ZM43.29 7.104C42.7673 7.104 42.3247 7.248 41.962 7.536C41.61 7.824 41.37 8.224 41.242 8.736H45.418C45.3113 8.384 45.1567 8.09067 44.954 7.856C44.7513 7.61067 44.506 7.424 44.218 7.296C43.9407 7.168 43.6313 7.104 43.29 7.104ZM53.7559 2.8C54.8865 2.8 55.8305 3.168 56.5879 3.904C57.3452 4.62933 57.7239 5.54667 57.7239 6.656C57.7239 7.75467 57.3452 8.672 56.5879 9.408C55.8305 10.1333 54.8865 10.496 53.7559 10.496H51.8839V14H49.4519V2.8H53.7559ZM53.6599 8.256C54.1399 8.256 54.5239 8.10667 54.8119 7.808C55.1105 7.50933 55.2599 7.12533 55.2599 6.656C55.2599 6.18667 55.1105 5.80267 54.8119 5.504C54.5239 5.19467 54.1399 5.04 53.6599 5.04H51.8839V8.256H53.6599ZM59.245 4.208V2.032H61.581V4.208H59.245ZM59.245 14V5.36H61.581V14H59.245ZM71.4071 14H68.7671L67.0551 11.136L65.2951 14H62.7191L65.6631 9.568L62.9111 5.36H65.5511L67.0551 7.856L68.6551 5.36H71.2311L68.4311 9.44L71.4071 14ZM80.5665 9.648C80.5665 9.872 80.5505 10.1013 80.5185 10.336H73.9905C74.0865 10.9227 74.3158 11.376 74.6785 11.696C75.0518 12.0053 75.5265 12.16 76.1025 12.16C76.4972 12.16 76.8545 12.0747 77.1745 11.904C77.4945 11.7227 77.7452 11.4773 77.9265 11.168H80.3905C80.0705 12.1067 79.5265 12.8533 78.7585 13.408C77.9905 13.9627 77.1052 14.24 76.1025 14.24C74.8225 14.24 73.7558 13.8027 72.9025 12.928C72.0492 12.0533 71.6225 10.9707 71.6225 9.68C71.6225 9.168 71.6918 8.67733 71.8305 8.208C71.9798 7.73867 72.1878 7.31733 72.4545 6.944C72.7318 6.57067 73.0518 6.25067 73.4145 5.984C73.7772 5.70667 74.1878 5.49333 74.6465 5.344C75.1052 5.19467 75.5905 5.12 76.1025 5.12C76.9665 5.12 77.7398 5.32267 78.4225 5.728C79.1158 6.13333 79.6438 6.68267 80.0065 7.376C80.3798 8.06933 80.5665 8.82667 80.5665 9.648ZM76.1025 7.104C75.5798 7.104 75.1372 7.248 74.7745 7.536C74.4225 7.824 74.1825 8.224 74.0545 8.736H78.2305C78.1238 8.384 77.9692 8.09067 77.7665 7.856C77.5638 7.61067 77.3185 7.424 77.0305 7.296C76.7532 7.168 76.4438 7.104 76.1025 7.104ZM82.2294 14V2.24H84.5654V14H82.2294Z" fill="white"/>
</svg>
